Coordinates
version=1
nRows=23
nColumns=38
inDegrees=no

Units are S.I. units (second, meters, Newtons, ...)
If the header above contains a line with 'inDegrees', this indicates whether rotational values are in degrees (yes) or radians (no).

endheader
time	pelvis_tilt	pelvis_list	pelvis_rotation	pelvis_tx	pelvis_ty	pelvis_tz	hip_flexion_r	hip_adduction_r	hip_rotation_r	knee_angle_r	ankle_angle_r	subtalar_angle_r	mtp_angle_r	hip_flexion_l	hip_adduction_l	hip_rotation_l	knee_angle_l	ankle_angle_l	subtalar_angle_l	mtp_angle_l	lumbar_extension	lumbar_bending	lumbar_rotation	arm_flex_r	arm_add_r	arm_rot_r	elbow_flex_r	pro_sup_r	wrist_flex_r	wrist_dev_r	arm_flex_l	arm_add_l	arm_rot_l	elbow_flex_l	pro_sup_l	wrist_flex_l	wrist_dev_l
20	-1.5317	1.44447	-0.228766	0.624251	-0.751124	0.973269	0.0399477	0.091542	-0.182572	0.277451	0.109985	0	0	-0.0930933	-0.104416	-0.289003	0.0671063	0.100337	0	0	-0.304889	0.10774	0.179618	0.262163	-0.461894	0.199343	1.40672	1.01852	0	0	0.185789	-0.309758	0.120119	1.43605	0.849532	0	0
20.01	-1.53924	1.44459	-0.221845	0.624393	-0.750676	0.973266	0.0408094	0.0915561	-0.182233	0.276335	0.108899	0	0	-0.0914736	-0.104395	-0.28903	0.0665786	0.0989445	0	0	-0.306326	0.107173	0.18078	0.281393	-0.464295	0.213482	1.39092	1.01427	0	0	0.203014	-0.309741	0.125873	1.42281	0.84641	0	0
20.02	-1.54569	1.44446	-0.215261	0.624488	-0.750303	0.973293	0.0408656	0.0920963	-0.182771	0.273093	0.107435	0	0	-0.0899196	-0.104865	-0.288627	0.0668795	0.0989117	0	0	-0.307784	0.10677	0.181884	0.300125	-0.466263	0.226568	1.37379	1.00704	0	0	0.220938	-0.309393	0.133127	1.40807	0.840139	0	0
20.03	-1.55162	1.44448	-0.209227	0.624569	-0.749917	0.973337	0.0408655	0.0925897	-0.183023	0.269441	0.106145	0	0	-0.0882368	-0.105202	-0.288768	0.0678249	0.0989524	0	0	-0.309366	0.10607	0.183236	0.319079	-0.467996	0.239653	1.35571	0.998222	0	0	0.239768	-0.308662	0.141702	1.39171	0.831767	0	0
20.04	-1.55788	1.44465	-0.203216	0.624686	-0.74946	0.973403	0.0419083	0.0926369	-0.182864	0.269451	0.105016	0	0	-0.0863121	-0.105296	-0.289667	0.0689984	0.0987431	0	0	-0.311039	0.105197	0.184656	0.338686	-0.469625	0.25406	1.33722	0.990344	0	0	0.259083	-0.307674	0.150245	1.37419	0.826641	0	0
20.05	-1.56517	1.44489	-0.196121	0.624814	-0.749006	0.973448	0.0433358	0.0924721	-0.183168	0.269698	0.104063	0	0	-0.0847291	-0.10519	-0.289945	0.068927	0.0984847	0	0	-0.312567	0.104303	0.185933	0.358129	-0.471146	0.268975	1.31927	0.982713	0	0	0.2781	-0.306543	0.158162	1.35674	0.823796	0	0
20.06	-1.57272	1.44502	-0.1885	0.624933	-0.748568	0.973483	0.0443858	0.0926251	-0.182974	0.268541	0.103062	0	0	-0.0834697	-0.105156	-0.289133	0.0682	0.098333	0	0	-0.314007	0.103527	0.18702	0.377515	-0.472633	0.285032	1.30153	0.968225	0	0	0.29645	-0.305024	0.165667	1.3394	0.817719	0	0
20.07	-1.58183	1.44535	-0.179298	0.625038	-0.74813	0.973488	0.0456419	0.0926743	-0.182373	0.26728	0.102698	0	0	-0.0820737	-0.104873	-0.288612	0.0671712	0.0968637	0	0	-0.315229	0.102493	0.188109	0.396841	-0.47338	0.30053	1.28282	0.961508	0	0	0.314546	-0.303076	0.173076	1.32147	0.812487	0	0
20.08	-1.58966	1.44579	-0.171421	0.625102	-0.74768	0.973492	0.0470223	0.0925647	-0.182107	0.266563	0.101942	0	0	-0.0806688	-0.104521	-0.288459	0.0665463	0.0955693	0	0	-0.316631	0.101198	0.189347	0.416348	-0.473869	0.316097	1.26395	0.953747	0	0	0.332734	-0.300867	0.180254	1.30317	0.809436	0	0
20.09	-1.59227	1.44584	-0.168228	0.625198	-0.747287	0.973539	0.0475434	0.0926822	-0.182709	0.265701	0.100767	0	0	-0.0800891	-0.104455	-0.287814	0.0656311	0.094503	0	0	-0.31872	0.100312	0.190308	0.435789	-0.474271	0.331282	1.24501	0.948045	0	0	0.350594	-0.298155	0.186799	1.2851	0.808463	0	0
20.1	-1.59384	1.44563	-0.165891	0.625336	-0.746891	0.97358	0.0477705	0.0930067	-0.183415	0.264825	0.0995466	0	0	-0.0799117	-0.104545	-0.286674	0.0640491	0.0931976	0	0	-0.321029	0.099756	0.191153	0.454948	-0.474619	0.346197	1.22629	0.943288	0	0	0.368217	-0.295231	0.193747	1.26737	0.806301	0	0
20.11	-1.59883	1.44573	-0.160766	0.62544	-0.746354	0.973568	0.0489016	0.0931423	-0.183029	0.264532	0.0986306	0	0	-0.0792401	-0.104303	-0.285917	0.0624302	0.0915753	0	0	-0.323177	0.0987298	0.192551	0.473833	-0.474637	0.36053	1.20766	0.938681	0	0	0.38609	-0.291851	0.200599	1.24925	0.804506	0	0
20.12	-1.597	1.44562	-0.161849	0.625549	-0.745901	0.973625	0.0484814	0.0934245	-0.183134	0.262969	0.0973184	0	0	-0.0794213	-0.104248	-0.285043	0.0610444	0.0899788	0	0	-0.3263	0.0978173	0.193473	0.492135	-0.474424	0.374478	1.18954	0.930653	0	0	0.403737	-0.288055	0.206784	1.23107	0.804897	0	0
20.13	-1.5919	1.44531	-0.165565	0.625709	-0.745528	0.973721	0.0471849	0.0937638	-0.184329	0.26049	0.0957977	0	0	-0.0799038	-0.104422	-0.283989	0.059965	0.0887611	0	0	-0.329904	0.0972264	0.193847	0.509968	-0.473963	0.387452	1.17168	0.927433	0	0	0.42127	-0.284615	0.213984	1.21294	0.803999	0	0
20.14	-1.58631	1.44494	-0.169459	0.625908	-0.745176	0.973816	0.0460098	0.094015	-0.186099	0.25848	0.0951289	0	0	-0.0802842	-0.104724	-0.282783	0.0592106	0.088527	0	0	-0.333521	0.0968235	0.193869	0.527554	-0.47339	0.400149	1.15435	0.922828	0	0	0.43844	-0.281377	0.221757	1.19498	0.800895	0	0
20.15	-1.5829	1.44483	-0.171164	0.6261	-0.744774	0.973898	0.0454635	0.0941317	-0.186903	0.257451	0.0952999	0	0	-0.0803055	-0.104774	-0.281103	0.0581979	0.0874149	0	0	-0.337036	0.0961849	0.193838	0.544612	-0.472372	0.411207	1.13759	0.918137	0	0	0.455219	-0.278136	0.22874	1.17744	0.799338	0	0
20.16	-1.57873	1.44476	-0.173774	0.626257	-0.744389	0.974002	0.0447018	0.0942038	-0.187961	0.255961	0.0934414	0	0	-0.0804593	-0.104728	-0.279749	0.057308	0.0858736	0	0	-0.340758	0.0953728	0.194217	0.561487	-0.471236	0.421246	1.12036	0.912299	0	0	0.472216	-0.274807	0.236125	1.15941	0.798348	0	0
20.17	-1.57524	1.44471	-0.176165	0.626374	-0.744001	0.974122	0.0440834	0.0942105	-0.188596	0.254774	0.0913927	0	0	-0.0805289	-0.104671	-0.279083	0.0565927	0.0845957	0	0	-0.344517	0.0943972	0.195204	0.578229	-0.470074	0.430905	1.10249	0.906466	0	0	0.489344	-0.271401	0.244125	1.14137	0.79708	0	0
20.18	-1.57324	1.44459	-0.177061	0.626484	-0.743602	0.974228	0.0437873	0.0943433	-0.189277	0.253927	0.0919258	0	0	-0.0805293	-0.104697	-0.278117	0.0555416	0.0832369	0	0	-0.348152	0.0936546	0.196182	0.594858	-0.469257	0.44135	1.08517	0.898806	0	0	0.506506	-0.268423	0.253355	1.12384	0.795231	0	0
20.19	-1.57761	1.44443	-0.171425	0.626588	-0.743194	0.974272	0.0442841	0.0948528	-0.190174	0.252514	0.0904915	0	0	-0.0796841	-0.104944	-0.276486	0.0543775	0.0816969	0	0	-0.350924	0.093258	0.197047	0.610453	-0.468828	0.451645	1.06914	0.895215	0	0	0.523504	-0.266046	0.264611	1.10699	0.792962	0	0
20.2	-1.58162	1.44422	-0.166124	0.6267	-0.742829	0.974335	0.0445059	0.0954168	-0.191592	0.250564	0.0879277	0	0	-0.0788123	-0.10526	-0.275111	0.0534501	0.0800909	0	0	-0.353673	0.0929935	0.197879	0.625237	-0.468875	0.462179	1.05451	0.890721	0	0	0.540177	-0.264032	0.27658	1.09053	0.789853	0	0
20.21	-1.5842	1.44384	-0.162316	0.626805	-0.742555	0.974431	0.0440906	0.0961246	-0.193059	0.248048	0.0853358	0	0	-0.0781094	-0.105821	-0.274647	0.0530303	0.0791454	0	0	-0.356571	0.0928843	0.199001	0.639654	-0.468973	0.472484	1.04018	0.884794	0	0	0.556604	-0.261771	0.287861	1.07329	0.786642	0	0
20.22	-1.58882	1.44351	-0.15681	0.626885	-0.742296	0.974516	0.0440391	0.0968081	-0.19352	0.246011	0.083554	0	0	-0.0774321	-0.106234	-0.274003	0.0520714	0.0779296	0	0	-0.359271	0.0927005	0.200338	0.654141	-0.468497	0.482045	1.02582	0.881157	0	0	0.572862	-0.259252	0.297914	1.05547	0.785055	0	0
